:SAMPLES-PER-SECOND 30
:FULLY-SPECIFIED
:DEGREES
782
root  -20.153 39.134 19.327 -25.4591 -82.4742 14.699
RightUpLeg  2.41161 -4.11184 -3.86225
RightLeg  24.7965 1.81075 0.687186
RightFoot  -15.3624 -0.116761 -0.381312
RightToes  -6.98493e-010 0 -3.6325e-017
Spine  13.2663 -0.775013 12.4808
Spine1  8.39803 2.33425 -6.9158
HEad  -18.7841 -0.704239 -9.64254
LeftShoulder1  0.471577 2.12123 -28.0066
LeftArm  11.3501 5.38306 -44.9516
LeftForeArm  25.1949 -15.2959 -8.1069
LeftHand  -0.0290456 4.98935 1.0468
RightShoulder  -0.0868663 -3.76093 24.4404
RightArm  20.6934 19.1178 49.568
RightForeArm  -1.8567 18.5452 5.60322
RightHand  -0.938954 6.20183 -9.6472
LeftUpLeg  -12.1813 5.51608 0.835871
LeftLeg  15.1612 4.3956 1.60325
LeftFoot  -6.52878 0.324885 -6.79299
LeftToes  7.91257e-010 -1.64976e-010 -3.02228e-011
783
root  -19.1157 39.3485 19.4314 -26.7803 -81.9491 16.0767
RightUpLeg  1.76512 -4.79626 -4.69639
RightLeg  22.6144 2.351 0.839526
RightFoot  -12.9779 -0.0901606 -0.120266
RightToes  -6.98493e-010 0 -3.6325e-017
Spine  12.3229 -0.75784 11.6278
Spine1  8.18011 2.00642 -5.91902
HEad  -16.6433 -2.83801 -9.20348
LeftShoulder1  0.37093 2.4446 -28.8695
LeftArm  5.44015 3.30833 -44.8373
LeftForeArm  28.095 -12.7596 -8.85233
LeftHand  -0.0376596 4.16341 1.45497
RightShoulder  -0.108206 -3.82799 24.5157
RightArm  16.9775 13.9306 49.8308
RightForeArm  0.166622 15.0224 6.31158
RightHand  -0.57636 5.24207 -6.61533
LeftUpLeg  -10.062 4.13213 1.42086
LeftLeg  20.7292 4.58213 2.23997
LeftFoot  -7.64738 0.25173 -6.38284
LeftToes  7.91257e-010 -1.64976e-010 -3.02228e-011
784
root  -18.0501 39.4251 19.578 -24.4486 -81.4872 13.8876
RightUpLeg  0.574244 -6.07914 -5.11685
RightLeg  21.3124 3.22061 1.03512
RightFoot  -11.1001 -0.0759399 0.477049
RightToes  -6.98493e-010 0 -3.6325e-017
Spine  11.3614 -1.02232 11.453
Spine1  8.02128 1.59812 -5.3239
HEad  -15.1276 -3.01774 -8.98962
LeftShoulder1  0.362271 2.46958 -28.8922
LeftArm  0.74247 2.27014 -45.6849
LeftForeArm  27.3692 -11.3212 -8.68406
LeftHand  -0.0342291 4.81908 2.90379
RightShoulder  -0.192367 -4.08958 25.1258
RightArm  14.0627 9.46334 49.6541
RightForeArm  1.79096 11.2022 7.02804
RightHand  -0.494581 4.36545 -6.18161
LeftUpLeg  -7.85792 2.43204 2.4828
LeftLeg  25.9733 3.42361 2.14256
LeftFoot  -9.15354 0.177415 -6.46583
LeftToes  7.91257e-010 -1.64976e-010 -3.02228e-011
785
root  -16.9946 39.4256 19.7411 -22.5701 -81.5445 11.7716
RightUpLeg  -0.458758 -7.00762 -5.29075
RightLeg  20.3856 4.29748 1.25092
RightFoot  -9.35797 -0.0803087 0.973489
RightToes  -6.98493e-010 0 -3.6325e-017
Spine  10.5856 -1.18928 11.3908
Spine1  8.43298 1.40304 -4.8607
HEad  -15.2038 0.616495 -9.82661
LeftShoulder1  0.31125 2.61402 -28.9003
LeftArm  -1.0125 1.09725 -46.4007
LeftForeArm  24.3867 -11.1145 -8.36209
LeftHand  -0.0152278 5.90304 3.97875
RightShoulder  -0.254714 -4.27619 25.6305
RightArm  12.9652 5.36366 49.147
RightForeArm  4.02556 7.65053 7.45779
RightHand  -0.42515 3.22063 -5.87542
LeftUpLeg  -4.62863 1.44292 3.78476
LeftLeg  30.1131 1.89582 1.52868
LeftFoot  -10.6952 0.103672 -6.92231
LeftToes  7.91257e-010 -1.64976e-010 -3.02228e-011
786
root  -15.889 39.3129 19.9201 -18.0671 -81.3408 6.93074
RightUpLeg  -1.77568 -7.69392 -5.14784
RightLeg  20.1322 4.81344 1.44356
RightFoot  -7.95802 -0.102302 1.63373
RightToes  -6.98493e-010 0 -3.6325e-017
Spine  10.0977 -1.58797 10.8527
Spine1  8.77258 0.709049 -3.54387
HEad  -16.5345 7.47335 -12.4521
LeftShoulder1  0.206587 2.92576 -29.563
LeftArm  0.796627 0.22092 -46.232
LeftForeArm  19.7026 -12.3878 -8.19587
LeftHand  -0.0865802 3.82934 5.37275
RightShoulder  -0.277378 -4.33779 25.9542
RightArm  13.1911 1.48745 48.3767
RightForeArm  8.40141 4.88237 7.49848
RightHand  -0.236562 1.41303 -4.21573
LeftUpLeg  -1.32597 0.315334 5.30545
LeftLeg  33.6531 0.617588 0.798143
LeftFoot  -11.9728 0.0321852 -7.0788
LeftToes  7.91257e-010 -1.64976e-010 -3.02228e-011
787
root  -14.7187 39.1297 20.128 -13.592 -81.113 2.30078
RightUpLeg  -3.69491 -7.54864 -4.85256
RightLeg  20.4079 4.37153 1.36678
RightFoot  -6.71595 -0.143724 2.43195
RightToes  -6.98493e-010 0 -3.6325e-017
Spine  9.98739 -2.14533 10.4134
Spine1  8.66004 -0.0218169 -2.87477
HEad  -16.8339 9.66747 -12.7812
LeftShoulder1  0.136426 3.11839 -29.2964
LeftArm  3.67563 -0.118532 -46.759
LeftForeArm  15.6181 -14.8022 -7.51524
LeftHand  -0.0920829 3.78784 5.51654
RightShoulder  -0.333646 -4.49626 26.5061
RightArm  13.8761 -1.87623 47.2111
RightForeArm  10.7201 2.67059 7.75505
RightHand  -0.293161 1.31922 -5.21381
LeftUpLeg  1.93701 -0.667396 6.73427
LeftLeg  36.1234 -0.345777 0.0894036
LeftFoot  -13.0744 -0.0326 -7.36301
LeftToes  7.91257e-010 -1.64976e-010 -3.02228e-011
788
root  -13.5091 38.8966 20.3438 -10.1456 -80.6312 -1.49103
RightUpLeg  -5.3077 -7.60345 -4.86258
RightLeg  20.4848 4.12875 1.37261
RightFoot  -5.86977 -0.21313 3.61989
RightToes  -6.98493e-010 0 -3.6325e-017
Spine  9.99491 -2.48636 8.90637
Spine1  8.93047 -0.953823 -1.06668
HEad  -16.3744 7.84949 -11.5822
LeftShoulder1  0.0694999 3.3087 -29.4453
LeftArm  6.24896 -0.89892 -47.5415
LeftForeArm  13.73 -16.807 -6.71648
LeftHand  -0.0908535 3.82232 5.52468
RightShoulder  -0.332132 -4.48679 26.6537
RightArm  13.6556 -5.63584 45.5566
RightForeArm  14.0283 2.27293 7.44827
RightHand  -0.218381 0.318455 -4.49676
LeftUpLeg  5.45196 -1.89967 7.72068
LeftLeg  37.4661 -1.70877 -1.04325
LeftFoot  -13.9047 -0.0816053 -7.35431
LeftToes  7.91257e-010 -1.64976e-010 -3.02228e-011
789
root  -12.1996 38.6094 20.6127 -7.16574 -79.7716 -4.46826
RightUpLeg  -7.69417 -8.21539 -5.12064
RightLeg  21.1755 3.89682 1.41315
RightFoot  -4.94431 -0.321182 5.14113
RightToes  -6.98493e-010 0 -3.6325e-017
Spine  9.77112 -2.8919 7.67401
Spine1  9.32025 -1.81921 0.382676
HEad  -16.8333 7.55022 -10.5924
LeftShoulder1  0.0317353 3.4143 -29.4211
LeftArm  9.37716 -2.18062 -48.2549
LeftForeArm  12.9555 -18.7226 -5.89005
LeftHand  -0.108495 3.26898 5.21718
RightShoulder  -0.359095 -4.56189 26.8763
RightArm  12.9336 -9.2422 43.742
RightForeArm  14.7452 2.59837 6.882
RightHand  -0.171373 0.595235 -3.39216
LeftUpLeg  8.33376 -3.93663 7.91629
LeftLeg  37.6122 -4.02421 -2.94744
LeftFoot  -13.961 -0.106282 -8.33176
LeftToes  7.91257e-010 -1.64976e-010 -3.02228e-011
790
root  -10.8616 38.3552 20.8832 -5.68723 -79.1223 -5.6324
RightUpLeg  -9.98822 -8.36515 -5.53453
RightLeg  20.8781 3.4316 1.20595
RightFoot  -3.78217 -0.478175 6.82832
RightToes  -6.98493e-010 0 -3.6325e-017
Spine  9.51327 -2.9823 6.10525
Spine1  9.39073 -2.45833 1.85977
HEad  -16.7465 7.88011 -9.70355
LeftShoulder1  0.00983638 3.47652 -29.852
LeftArm  12.0625 -3.85858 -48.5667
LeftForeArm  13.1238 -20.0875 -5.28633
LeftHand  -0.150932 2.04311 4.94013
RightShoulder  -0.385017 -4.65223 26.516
RightArm  12.2493 -12.8621 42.3942
RightForeArm  12.3596 3.51604 6.4209
RightHand  -0.247106 1.32197 -4.40977
LeftUpLeg  11.1725 -5.32958 7.73549
LeftLeg  35.6968 -7.61981 -5.47556
LeftFoot  -14.7814 -0.212005 -9.75456
LeftToes  7.91257e-010 -1.64976e-010 -3.02228e-011
791
root  -9.47459 38.2193 21.1732 -4.86972 -78.2807 -5.93623
RightUpLeg  -11.4248 -9.24933 -6.19522
RightLeg  18.6017 3.18709 0.975071
RightFoot  -2.26472 -0.717779 8.81246
RightToes  -6.98493e-010 0 -3.6325e-017
Spine  9.41414 -3.22071 4.7072
Spine1  9.06976 -3.10769 2.10724
HEad  -16.5385 8.25871 -8.97308
LeftShoulder1  0.0250689 3.43364 -29.4602
LeftArm  14.3313 -5.37653 -49.1599
LeftForeArm  12.8185 -21.3591 -4.76534
LeftHand  -0.133366 2.2547 4.62665
RightShoulder  -0.375966 -4.63445 26.2299
RightArm  10.9349 -15.5131 41.7939
RightForeArm  10.6728 4.11425 5.79858
RightHand  -0.297151 1.71583 -5.02398
LeftUpLeg  13.3502 -6.00849 7.34665
LeftLeg  31.7182 -10.5832 -6.65414
LeftFoot  -18.8291 -0.477159 -9.27987
LeftToes  7.91257e-010 -1.64976e-010 -3.02228e-011
792
root  -7.96833 38.145 21.5051 -8.26056 -77.9571 -1.66533
RightUpLeg  -12.8714 -10.2523 -7.76313
RightLeg  15.3473 3.48559 0.880701
RightFoot  -1.01156 -0.986065 10.8256
RightToes  -6.98493e-010 0 -3.6325e-017
Spine  9.94842 -3.04446 2.47551
Spine1  8.08479 -3.37474 2.06897
HEad  -17.1405 8.72966 -8.65269
LeftShoulder1  -0.0131698 3.53926 -29.5924
LeftArm  14.4806 -7.50527 -49.9526
LeftForeArm  12.6176 -21.3537 -4.7891
LeftHand  -0.113385 3.02057 4.91798
RightShoulder  -0.423772 -4.7779 26.3268
RightArm  10.1445 -16.3579 41.0546
RightForeArm  9.23754 4.31111 5.39578
RightHand  -0.282374 1.49215 -4.92529
LeftUpLeg  13.3965 -4.62864 5.96272
LeftLeg  26.7631 -10.9587 -5.64561
LeftFoot  -22.9234 -0.378144 -5.03037
LeftToes  7.91257e-010 -1.64976e-010 -3.02228e-011
793
root  -6.32427 38.13 21.8396 -16.2059 -77.9634 6.79677
RightUpLeg  -13.7417 -11.0948 -10.043
RightLeg  11.4864 4.24307 0.705981
RightFoot  -1.40097 -1.03159 11.6796
RightToes  -6.98493e-010 0 -3.6325e-017
Spine  11.2488 -2.54033 -0.500066
Spine1  7.83728 -3.27746 2.18349
HEad  -18.2991 8.13019 -8.37777
LeftShoulder1  -0.068868 3.69097 -30.1722
LeftArm  15.1395 -9.85777 -50.2124
LeftForeArm  11.6298 -21.75 -4.68728
LeftHand  -0.11183 2.93821 4.77988
RightShoulder  -0.404401 -4.73839 25.8009
RightArm  8.56794 -15.8538 41.7324
RightForeArm  8.9861 4.22953 4.82957
RightHand  -0.269242 2.30617 -4.24039
LeftUpLeg  12.0538 -2.9226 2.83921
LeftLeg  23.865 -8.40489 -3.71689
LeftFoot  -23.9849 0.0454341 -0.851206
LeftToes  7.91257e-010 -1.64976e-010 -3.02228e-011
794
root  -4.63756 38.1707 22.1523 -22.0995 -78.0173 13.4028
RightUpLeg  -14.1587 -12.4413 -11.613
RightLeg  6.52558 4.67918 0.494818
RightFoot  -3.62912 -0.755316 10.8401
RightToes  -6.98493e-010 0 -3.6325e-017
Spine  12.4788 -2.17834 -1.72552
Spine1  7.53138 -2.70763 0.92645
HEad  -18.7297 7.48173 -7.76905
LeftShoulder1  0.108805 3.196 -29.0478
LeftArm  13.5637 -11.4912 -51.4581
LeftForeArm  11.2202 -20.5693 -5.18486
LeftHand  -0.103468 3.68576 5.88343
RightShoulder  -0.418743 -4.77604 25.9724
RightArm  6.97637 -14.7019 42.9654
RightForeArm  8.34854 3.70015 4.35315
RightHand  -0.326903 2.77849 -4.87057
LeftUpLeg  9.12758 -3.48613 -0.467564
LeftLeg  23.2789 -5.34049 -2.16592
LeftFoot  -23.6028 0.243655 0.955053
LeftToes  7.91257e-010 -1.64976e-010 -3.02228e-011
795
root  -3.10375 38.2852 22.4187 -26.0283 -78.526 18.3663
RightUpLeg  -13.8271 -13.27 -12.4977
RightLeg  0.799138 2.43289 0.534972
RightFoot  -5.65909 -0.641949 12.1033
RightToes  -6.98493e-010 0 -3.6325e-017
Spine  12.6966 -1.6242 -2.13586
Spine1  7.19323 -1.8638 -0.257915
HEad  -18.2236 6.68401 -7.9403
LeftShoulder1  0.108574 3.19713 -29.284
LeftArm  12.2167 -13.2275 -51.604
LeftForeArm  12.1898 -18.3381 -6.31948
LeftHand  -0.15169 2.82939 6.43199
RightShoulder  -0.374727 -4.65502 25.5498
RightArm  5.39023 -13.9293 44.5057
RightForeArm  8.13861 3.8338 3.8673
RightHand  -0.293842 1.95948 -4.81361
LeftUpLeg  5.02987 -3.47285 -2.36056
LeftLeg  24.4816 -4.12013 -1.70889
LeftFoot  -21.7992 0.250251 1.29405
LeftToes  7.91257e-010 -1.64976e-010 -3.02228e-011
796
root  -1.70299 38.4748 22.6736 -31.5945 -80.0614 24.6029
RightUpLeg  -14.473 -14.0562 -12.658
RightLeg  0.651235 -2.23045 1.44834
RightFoot  -5.64979 -0.743179 14.1268
RightToes  -6.98493e-010 0 -3.6325e-017
Spine  12.9091 -1.1036 -0.960922
Spine1  6.78874 -0.57424 -2.71463
HEad  -16.0202 6.47047 -8.57398
LeftShoulder1  0.0934537 3.24196 -29.5627
LeftArm  10.9701 -13.3543 -50.5316
LeftForeArm  14.3768 -16.9733 -7.05042
LeftHand  -0.12473 2.8985 5.1873
RightShoulder  -0.382495 -4.67586 25.6552
RightArm  5.14421 -12.4021 45.7567
RightForeArm  8.24509 4.05787 3.90006
RightHand  -0.277214 1.55639 -4.75739
LeftUpLeg  2.35192 -1.75827 -3.32337
LeftLeg  24.0535 -3.85211 -1.54268
LeftFoot  -19.451 0.215423 1.40507
LeftToes  7.91257e-010 -1.64976e-010 -3.02228e-011
